<?xml version="1.0" encoding="utf-8"?>
<svg width="800px" height="800px" viewBox="0 0 24 24" xmlns="http://www.w3.org/2000/svg">
  <defs>
    <style>
      .dollar-stroke{fill:none;stroke:#020202;stroke-linecap:square;stroke-miterlimit:10;stroke-width:1.5px;}
      .document-stroke{stroke:#000000;stroke-linejoin:round;stroke-width:1.5;fill:none;}
    </style>
    <clipPath id="pageClip">
      <polygon points="13,3 16,6 19,9 19,21 5,21 5,3 13,3" />
    </clipPath>
  </defs>
  
  <!-- Document outline -->
  <path class="document-stroke" d="M13 3L16 6L19 9M13 3L5 3L5 21L19 21L19 9M13 3L13 9L19 9"/>
  
  <!-- Dollar sign - properly centered with corrected vertical line -->
  <g clip-path="url(#pageClip)">
    <g transform="translate(12, 12) scale(0.5) translate(-10, -8)">
	  <g transform="translate (0, 3)">
      <polyline class="dollar-stroke" points="10 16.5 10 13.64 10 -1.64 10 -4.5"/>
	  </g>
      <path class="dollar-stroke" d="M4.27,13.77h0a2.87,2.87,0,0,0,2.87,2.87h4.77a3.82,3.82,0,0,0,3.82-3.82h0A3.82,3.82,0,0,0,11.91,9H8.09A3.82,3.82,0,0,1,4.27,5.18h0a3.82,3.82,0,0,1,3.82-3.82h4.77a2.87,2.87,0,0,1,2.87,2.87h0"/>
    </g>
  </g>
</svg>